<svg width="1600" height="640" viewBox="0 0 1600 640" fill="none" xmlns="http://www.w3.org/2000/svg" role="img" aria-label="Structured shooting participation record keeping illustration">
  <defs>
    <linearGradient id="bg" x1="0" y1="0" x2="1600" y2="640" gradientUnits="userSpaceOnUse">
      <stop stop-color="#F4F8FC"/>
      <stop offset="1" stop-color="#E8EEF7"/>
    </linearGradient>
    <linearGradient id="panel" x1="0" y1="0" x2="1" y2="1">
      <stop stop-color="#0B4EA2" stop-opacity="0.12"/>
      <stop offset="1" stop-color="#0B4EA2" stop-opacity="0.04"/>
    </linearGradient>
  </defs>

  <rect width="1600" height="640" fill="url(#bg)"/>
  <rect x="70" y="70" width="1460" height="500" rx="28" fill="white"/>
  <rect x="70" y="70" width="1460" height="500" rx="28" fill="url(#panel)"/>

  <rect x="130" y="140" width="640" height="360" rx="18" fill="#DDE6F3"/>
  <rect x="155" y="165" width="590" height="240" rx="14" fill="#C8D8EE"/>
  <rect x="180" y="190" width="300" height="12" rx="6" fill="#A7BFDE"/>
  <rect x="180" y="214" width="260" height="10" rx="5" fill="#A7BFDE"/>
  <rect x="180" y="236" width="280" height="10" rx="5" fill="#A7BFDE"/>
  <rect x="180" y="320" width="520" height="55" rx="10" fill="#EEF3FA"/>

  <circle cx="980" cy="248" r="66" fill="#D7E4F6"/>
  <rect x="930" y="320" width="102" height="138" rx="22" fill="#BFD4EE"/>
  <rect x="1038" y="330" width="170" height="96" rx="12" fill="#E7EEF9"/>
  <rect x="1060" y="352" width="126" height="10" rx="5" fill="#B4C7E4"/>
  <rect x="1060" y="372" width="110" height="10" rx="5" fill="#B4C7E4"/>
  <rect x="1060" y="392" width="118" height="10" rx="5" fill="#B4C7E4"/>

  <rect x="1218" y="232" width="240" height="250" rx="14" fill="#F6F9FD" stroke="#C9D8EC" stroke-width="3"/>
  <rect x="1248" y="272" width="180" height="12" rx="6" fill="#A7BFDE"/>
  <rect x="1248" y="298" width="160" height="10" rx="5" fill="#B4C7E4"/>
  <rect x="1248" y="322" width="170" height="10" rx="5" fill="#B4C7E4"/>
  <rect x="1248" y="346" width="150" height="10" rx="5" fill="#B4C7E4"/>
  <rect x="1248" y="392" width="130" height="34" rx="8" fill="#0B4EA2" fill-opacity="0.17"/>

  <circle cx="151" cy="538" r="8" fill="#0B4EA2" fill-opacity="0.35"/>
  <circle cx="1468" cy="103" r="9" fill="#0B4EA2" fill-opacity="0.2"/>
</svg>
